<?xml version="1.0" encoding="utf-8"?>
<!-- Generator: Adobe Illustrator 19.2.1, SVG Export Plug-In . SVG Version: 6.00 Build 0)  -->
<svg version="1.1" id="Слой_1" xmlns="http://www.w3.org/2000/svg" xmlns:xlink="http://www.w3.org/1999/xlink" x="0px" y="0px"
	 viewBox="0 0 192 192" style="enable-background:new 0 0 192 192;" xml:space="preserve">
<style type="text/css">
	.st0{fill:#914F76;}
	.st1{fill:#8ABD33;}
	.st2{fill:#E6791B;}
	.st3{fill:#F6C519;}
	.st4{fill:#2691CF;}
	.st5{fill:#DD1C7C;}
	.st6{fill:#D72B21;}
</style>
<path class="st0" d="M108.8,133.1c4.7,5.7,10.6,10.1,16,15c1.3,1.2,3.2,2.1,2,4.4l0.1,0.1c-1,1-1.9,2-2.9,3c-0.3,0.4-0.6,0.7-1,1.1
	c-1.7,2-3.5,4-5.2,5.9c-0.3,0.3-0.5,0.6-0.8,0.9c-1.4,1.7-2.9,3.4-4.3,5c-3.2,3.4-6.4,6.8-9.6,10.1c-1-0.7-2-1.4-3-2
	c-0.3-0.3-0.6-0.6-1-1c0-0.3,0-0.8-0.1-1c-4-3.9-7.9-7.8-12-11.5c-4-3.7-8.1-7.2-12.3-10.7c-1.7-1.4-2.1-2.6-0.3-4.4
	c2.2-2.2,4-4.7,6.1-7.1c0.6-0.6,1.2-1.3,1.7-1.9c0.3-0.4,0.7-0.8,1-1.2l0,0c0.3-0.4,0.7-0.7,1-1.1l0,0c0.3-0.3,0.7-0.7,1-1
	c0,0,0,0,0,0c1.4-1.6,2.8-3.2,4.2-4.9l0,0c2.3-2.4,4.5-4.8,6.8-7.2c1,0.1,1.9,0.2,2.9,0.4c0.9,1.1,1.1,2.9,3.1,2.8l0,0
	c0.4,0.3,0.7,0.7,1.1,1l0,0c0.4,0.3,0.7,0.7,1.1,1l0,0c0.3,0.3,0.7,0.7,1,1l0,0c0.3,0.3,0.7,0.6,1,0.9c0,0,0,0,0,0
	C107,131.6,107.9,132.3,108.8,133.1L108.8,133.1z"/>
<path class="st1" d="M31.5,63.2c1.2-0.7,2.4-1.5,3.6-2.2c2.1-1.2,4.2-2.6,6.3-3.7c5.2-2.8,4.3-4.3,8.3,1.6c1.6,2.4,3.5,4.7,5.3,7
	l0,0c1,1.4,1.9,2.8,2.9,4.3c0.4,0.6,0.8,1.1,1.2,1.7c0.8,1.3,1.6,2.7,2.3,4c0.2,0.3,0.4,0.6,0.7,0.8c0.3,0.4,0.6,0.8,0.9,1.2
	c0.7,1,1.3,2,2,3c0.4,0.7,0.8,1.3,1.1,2c-0.7,1.3-1.4,2.6-2.1,4c-0.6,0.4-1.3,0.8-1.9,1.2c-1.7,1.2-3.5,2.5-5.2,3.7l0,0
	c-3.6,2.4-7.2,4.8-10.8,7.2c0,0,0,0,0,0c-1,0.7-2,1.3-3,2c-0.4,0.3-0.7,0.5-1.1,0.8c-0.6,0.4-1.3,0.8-1.9,1.2
	c-1.1,0.7-2.3,1.3-3.4,2c-3,1.9-3.1,2-5.2-1c-3.9-5.5-7.6-11-11.4-16.6c-1.3-1.8-2.6-3.7-3.8-5.5c0,0,0,0,0,0
	c-0.9-1.3-1.8-2.7-2.7-4c-0.1-0.6-0.2-1.2-0.4-1.8c0.3-0.4,0.6-0.7,0.9-1.1c0.4-0.3,0.8-0.6,1.1-0.9c1-0.7,2-1.3,3.1-2l0,0
	C22.6,69.1,27.1,66.1,31.5,63.2z"/>
<path class="st2" d="M112.3,19.1c4.3-1.7,8.6-3.4,12.9-5.1c4-1.7,4.1-1.7,5.7,2.4c3.6,9.3,7.2,18.6,10.9,27.8
	c2.2,5.7,2.2,5.7-3.5,8.3c-0.6,0.3-1.1,0.6-1.7,1c-1.2,0.5-2.3,0.9-3.5,1.4c-3.4,1.4-6.8,2.9-10.2,4.3c-0.6,0.2-1.2,0.4-1.8,0.7
	c-0.7,0.3-1.4,0.6-2.1,0.9l0,0c-1.4,0.6-2.7,1.2-4.1,1.8c-0.9,0.1-1.9,0.2-2.8,0.3c-0.3-0.4-0.6-0.8-0.9-1.2l0.1,0
	c-1.4-3.6-2.8-7.3-4.2-10.9l0,0c-0.2-0.8-0.4-1.6-0.7-2.3c-2.7-6.7-5.3-13.4-8-20.1c-0.7-1.8-0.6-3.1,1.5-3.9
	c2.5-0.9,4.8-2.2,7.2-3.3c1-0.3,2-0.7,3-1C110.8,19.8,111.5,19.4,112.3,19.1C112.2,19,112.3,19.1,112.3,19.1z"/>
<path class="st3" d="M50.7,32.8c0.1-0.6,0.2-1.3,0.3-1.9c1.4-4,2.7-8,4.1-12c0.3,0,0.6-0.1,0.9-0.3c4.3,1.1,8.6,2.2,13,3.3
	c0,0,0,0,0,0c7,2.2,14.1,4.5,21.1,6.7c0.6,0.1,1.3,0.2,1.9,0.3c0.7,0.3,1.4,0.7,2,1l0,0c0.1,1,0.1,2,0.2,3c-0.2,0.3-0.2,0.6-0.2,0.9
	c-0.7,2.3-1.4,4.6-2.1,7l0,0c-0.6,1.7-1.2,3.4-1.8,5.1c-0.3,1-0.6,2-0.9,3c-0.6,1.7-1.2,3.4-1.8,5c-0.1,0.6-0.2,1.3-0.3,1.9
	c-0.6,1.7-1.2,3.4-1.8,5.1C85,61.1,85,61.4,85,61.7c-3-0.5-6-1-9-1.6c-0.6-0.1-1.1-0.3-1.7-0.4c-2.1-0.9-4.2-2-6.3-2.7
	c-5.5-1.8-11-3.3-16.5-5c-6-1.9-5.9-1.9-4-8C48.5,40.3,49.6,36.5,50.7,32.8z"/>
<path class="st4" d="M41,150c-1-0.1-2-0.1-3-0.2c-0.7-0.3-1.3-0.6-2-0.9l-0.1-0.1c0.3-6,0.5-12,0.8-18c0-1.3,0.1-2.7,0.1-4
	c0.3-1.2,0.8-2.4,0.9-3.7c0.3-4.1,0.7-8.3,0.6-12.4c0-2.7,1.2-3,3.4-2.8c7.6,0.7,15.2,1.3,22.8,2c5.7,0.5,5.9,0.6,5.7,6.1
	c-0.3,7.6-0.6,15.2-0.9,22.9c0,0.7,0,1.4,0,2c-0.3,2.8-0.8,5.5-0.9,8.3c-0.1,2.1-0.7,3-2.9,2.8c-3.8-0.4-7.6-0.6-11.4-0.9
	c-1.7-0.1-3.3-0.2-5-0.2c-0.6,0-1.3-0.1-1.9-0.1c0,0,0,0,0,0C45.1,150.6,43,150.3,41,150z"/>
<path class="st5" d="M122,117.9c-0.1-1-0.2-2-0.2-3c-0.2-1-0.4-2-0.7-3c0.1-0.3,0.1-0.5,0-0.8c1.1-0.4,2.1-1,3.2-1.2
	c5.9-1.2,11.9-2.4,17.8-3.6c0.6-0.1,1.3-0.2,1.9-0.3c1.7-0.5,3.5-0.9,5.2-1.4c0.3-0.2,0.5-0.2,0.8-0.1c3.1-0.4,6.2-0.8,9.2-1.2
	c2.7-0.4,3.2-0.2,3.6,2.5c1.7,10.4,3.5,20.8,5.1,31.3c0.6,3.4,0.2,4-3.1,4.6c-3.4,0.7-6.8,1.3-10.2,1.9c-4.9,0.9-9.8,1.7-14.7,2.5
	c-2.9,0.3-5.8,0.5-8.7,0.8c-2,0.2-3.2-0.5-3.4-2.5c-0.3-2.4-0.5-4.8-1.1-7.2c-0.5-2-0.4-4.3-2-5.9c-0.3-0.1-0.5-0.2-0.8-0.2l0-0.1
	c-0.3-2-0.7-4-1-6c-0.1-1.3-0.2-2.7-0.3-4C122.5,119.9,122.2,118.9,122,117.9z"/>
<path class="st6" d="M129.2,85.5c0-0.5,0.1-1,0.1-1.5c3.6-6.3,7.2-12.7,10.8-19l0,0c0.3-0.4,0.5-0.8,0.8-1.1
	c0.3-0.1,0.4-0.4,0.3-0.7c2.1-3.5,4.3-7,6.4-10.5c2-3.3,2.1-3.5,5.3-1.8c5.6,3,11.1,6.3,16.8,9.3c1.7,0.9,3.6,1.4,5.5,2
	c2.6,0.9,2.6,2.7,1.9,4.8c-0.3,0.9-0.8,1.8-1.3,2.7c-4.9,9-9.8,18.1-14.8,27.1c-0.4,0.7-0.9,1.4-1.3,2.1c-0.8,1.9-2,1.7-3.6,0.8
	C147.1,95,138.2,90.3,129.2,85.5z"/>
</svg>
